<svg xmlns="http://www.w3.org/2000/svg" viewBox="0 0 50.72 37.44"><defs><style>.cls-1{fill:#b73f75;}</style></defs><title>Quote 2</title><g id="Layer_2" data-name="Layer 2"><g id="Layer_1-2" data-name="Layer 1"><path class="cls-1" d="M42.56,21.44c-7.84,2.88-14.24,7.68-14.24,13.92,0,4.8,3.52,6.08,8,7.84,1.6.64,2.08,2.56,1.92,4-.32,4.32-3.84,7-8.16,7-5.6,0-11.84-5-11.68-14.56C18.4,27.2,31.2,19.36,41,16.8Zm26.56,0c-7.84,2.88-14.24,7.68-14.24,13.92,0,4.8,3.52,6.08,8,7.84,1.6.64,2.08,2.56,1.92,4-.16,4.32-3.84,7-8.16,7-5.6,0-11.84-5-11.68-14.56C45,27.2,57.76,19.36,67.52,16.8Z" transform="translate(-18.4 -16.8)"/></g></g></svg>